<?xml version="1.0" encoding="UTF-8"?>
<svg width="162px" height="65px" viewBox="0 0 162 65" version="1.1" xmlns="http://www.w3.org/2000/svg" xmlns:xlink="http://www.w3.org/1999/xlink">
    <!-- Generator: Sketch 44.1 (41455) - http://www.bohemiancoding.com/sketch -->
    <title>Page 1</title>
    <desc>Created with Sketch.</desc>
    <defs>
        <polygon id="path-1" points="0.6959 0.007 26.5539 0.007 26.5539 49.8909 0.6959 49.8909"></polygon>
    </defs>
    <g id="Finngen" stroke="none" stroke-width="1" fill="none" fill-rule="evenodd">
        <g id="Landing-V3" transform="translate(-202.000000, -156.000000)">
            <g id="Page-1" transform="translate(202.000000, 155.000000)">
                <path d="M8.6419,16.11 C4.3759,20.914 -0.0001,26.208 -0.0001,32.44 C-0.0001,48.747 24.8939,55.12 21.0789,65.993 C22.5889,64.289 24.6619,61.331 24.6619,58.548 C24.6619,51.485 11.7789,46.406 6.4659,38.434 L24.1219,38.434 C25.0769,38.434 25.8579,37.612 25.8579,36.604 C25.8579,35.597 25.0769,34.773 24.1219,34.773 L4.6969,34.773 C4.3869,33.75 4.2149,32.678 4.2149,31.551 C4.2149,29.741 4.8969,27.907 5.7409,26.098 L16.2749,26.098 C17.2299,26.098 18.0119,25.275 18.0119,24.267 C18.0119,23.26 17.2299,22.437 16.2749,22.437 L7.5339,22.437 C8.5899,20.193 9.3259,18.047 8.6419,16.11" id="Fill-1" fill="#000000"></path>
                <g id="Group-6" transform="translate(9.000000, 0.992600)">
                    <mask id="mask-2" fill="white">
                        <use xlink:href="#path-1"></use>
                    </mask>
                    <g id="Clip-5"></g>
                    <path d="M17.9119,49.8909 C22.1779,45.0859 26.5539,39.7919 26.5539,33.5599 C26.5539,17.2529 1.6599,10.8799 5.4739,0.0069 C3.9649,1.7109 1.8919,4.6689 1.8919,7.4519 C1.8919,14.5159 14.7749,19.5939 20.0869,27.5659 L2.4319,27.5659 C1.4769,27.5659 0.6959,28.3879 0.6959,29.3959 C0.6959,30.4029 1.4769,31.2269 2.4319,31.2269 L21.8569,31.2269 C22.1669,32.2499 22.3389,33.3219 22.3389,34.4479 C22.3389,36.2589 21.6569,38.0929 20.8119,39.9019 L10.2789,39.9019 C9.3239,39.9019 8.5419,40.7259 8.5419,41.7329 C8.5419,42.7399 9.3239,43.5629 10.2789,43.5629 L19.0189,43.5629 C17.9639,45.8079 17.2269,47.9529 17.9119,49.8909" id="Fill-4" fill="#000000" mask="url(#mask-2)"></path>
                </g>
                <path d="M22.5535,8.7624 C20.6545,8.7624 19.1055,7.1294 19.1055,5.1274 C19.1055,3.1254 20.6545,1.4934 22.5535,1.4934 C24.4525,1.4934 26.0015,3.1254 26.0015,5.1274 C26.0015,7.1294 24.4525,8.7624 22.5535,8.7624" id="Fill-7" fill="#000000"></path>
                <path d="M13.5359,64.6804 C11.6369,64.6804 10.0879,63.0474 10.0879,61.0454 C10.0879,59.0434 11.6369,57.4104 13.5359,57.4104 C15.4339,57.4104 16.9829,59.0434 16.9829,61.0454 C16.9829,63.0474 15.4339,64.6804 13.5359,64.6804" id="Fill-9" fill="#000000"></path>
                <path d="M51.574,35.5544 L56.286,35.5544 L56.286,32.1444 L51.574,32.1444 L51.574,29.1434 L56.683,29.1434 L56.683,25.7334 L47.388,25.7334 L47.388,41.4594 L51.574,41.4594 L51.574,35.5544 Z M62.128,41.4604 L66.399,41.4604 L66.399,25.7334 L62.128,25.7334 L62.128,41.4604 Z M87.637,25.7334 L83.85,25.7334 L83.85,32.8434 C83.85,33.8044 83.9,35.0764 84.001,36.6614 L83.936,36.6614 L78.214,25.7334 L72.663,25.7334 L72.663,41.4594 L76.428,41.4594 L76.428,34.3704 C76.428,33.4524 76.36,32.1214 76.223,30.3804 L76.321,30.3804 L82.064,41.4594 L87.637,41.4594 L87.637,25.7334 Z M108.874,25.7334 L105.088,25.7334 L105.088,32.8434 C105.088,33.8044 105.137,35.0764 105.239,36.6614 L105.174,36.6614 L99.451,25.7334 L93.899,25.7334 L93.899,41.4594 L97.665,41.4594 L97.665,34.3704 C97.665,33.4524 97.596,32.1214 97.461,30.3804 L97.557,30.3804 L103.302,41.4594 L108.874,41.4594 L108.874,25.7334 Z M122.516,34.8554 L126.035,34.8554 L126.035,39.6964 C124.995,39.9474 123.929,40.0724 122.84,40.0724 C120.832,40.0724 119.309,39.5234 118.272,38.4264 C117.237,37.3284 116.719,35.7194 116.719,33.5964 C116.719,31.5744 117.257,29.9924 118.333,28.8524 C119.408,27.7124 120.904,27.1424 122.818,27.1424 C124.131,27.1424 125.497,27.4434 126.917,28.0464 L127.627,26.4324 C126.178,25.8154 124.615,25.5074 122.936,25.5074 C121.28,25.5074 119.835,25.8304 118.601,26.4804 C117.368,27.1294 116.423,28.0694 115.766,29.2994 C115.111,30.5294 114.783,31.9604 114.783,33.5964 C114.783,36.1494 115.446,38.1344 116.772,39.5504 C118.098,40.9674 119.953,41.6754 122.334,41.6754 C123.467,41.6754 124.464,41.6074 125.325,41.4704 C126.184,41.3334 127.031,41.1334 127.863,40.8674 L127.863,33.2204 L122.516,33.2204 L122.516,34.8554 Z M143.269,39.8254 L136.332,39.8254 L136.332,34.0364 L142.85,34.0364 L142.85,32.4244 L136.332,32.4244 L136.332,27.3574 L143.269,27.3574 L143.269,25.7334 L134.503,25.7334 L134.503,41.4594 L143.269,41.4594 L143.269,39.8254 Z M161.904,25.7334 L160.194,25.7334 L160.194,34.7584 C160.178,35.2094 160.197,35.9604 160.248,37.0124 C160.298,38.0624 160.33,38.6844 160.345,38.8774 L160.258,38.8774 L151.684,25.7334 L149.62,25.7334 L149.62,41.4594 L151.307,41.4594 L151.307,32.5204 C151.307,31.2304 151.251,29.8104 151.136,28.2614 L151.221,28.2614 L159.816,41.4594 L161.904,41.4594 L161.904,25.7334 Z" id="Fill-11" fill="#000000"></path>
            </g>
        </g>
    </g>
</svg>
