<?xml version="1.0" encoding="UTF-8"?>
<svg width="162px" height="65px" viewBox="0 0 162 65" version="1.1" xmlns="http://www.w3.org/2000/svg" xmlns:xlink="http://www.w3.org/1999/xlink">
    <!-- Generator: Sketch 44.1 (41455) - http://www.bohemiancoding.com/sketch -->
    <title>Page 1</title>
    <desc>Created with Sketch.</desc>
    <defs>
        <polygon id="path-1" points="25.8584 49.999 0.0004 49.999 0.0004 0.1166 25.8584 0.1166 25.8584 49.999"></polygon>
    </defs>
    <g id="Finngen" stroke="none" stroke-width="1" fill="none" fill-rule="evenodd">
        <g id="Landing-V2" transform="translate(-944.000000, -221.000000)">
            <g id="Page-1" transform="translate(944.000000, 221.000000)">
                <g id="Group-3" transform="translate(0.000000, 14.992600)">
                    <mask id="mask-2" fill="white">
                        <use xlink:href="#path-1"></use>
                    </mask>
                    <g id="Clip-2"></g>
                    <path d="M8.6424,0.1166 C4.3764,4.9216 0.0004,10.2156 0.0004,16.4476 C0.0004,32.7546 24.8944,39.1276 21.0794,50.0006 C22.5894,48.2966 24.6624,45.3386 24.6624,42.5556 C24.6624,35.4916 11.7794,30.4126 6.4664,22.4416 L24.1224,22.4416 C25.0774,22.4416 25.8584,21.6186 25.8584,20.6116 C25.8584,19.6046 25.0774,18.7806 24.1224,18.7806 L4.6974,18.7806 C4.3874,17.7576 4.2154,16.6856 4.2154,15.5586 C4.2154,13.7486 4.8974,11.9146 5.7414,10.1056 L16.2754,10.1056 C17.2304,10.1056 18.0124,9.2816 18.0124,8.2746 C18.0124,7.2676 17.2304,6.4446 16.2754,6.4446 L7.5344,6.4446 C8.5904,4.1996 9.3264,2.0546 8.6424,0.1166" id="Fill-1" fill="#4B1DD9" mask="url(#mask-2)"></path>
                </g>
                <path d="M26.9124,49.8827 C31.1784,45.0787 35.5544,39.7847 35.5544,33.5517 C35.5544,17.2457 10.6604,10.8727 14.4754,-0.0003 C12.9654,1.7037 10.8924,4.6617 10.8924,7.4447 C10.8924,14.5077 23.7754,19.5867 29.0874,27.5587 L11.4324,27.5587 C10.4774,27.5587 9.6964,28.3807 9.6964,29.3877 C9.6964,30.3957 10.4774,31.2187 11.4324,31.2187 L30.8574,31.2187 C31.1674,32.2427 31.3394,33.3147 31.3394,34.4407 C31.3394,36.2517 30.6574,38.0857 29.8134,39.8947 L19.2794,39.8947 C18.3244,39.8947 17.5424,40.7177 17.5424,41.7257 C17.5424,42.7327 18.3244,43.5547 19.2794,43.5547 L28.0204,43.5547 C26.9644,45.7997 26.2284,47.9457 26.9124,49.8827" id="Fill-4" fill="#BDC0C5"></path>
                <path d="M22.554,7.7625 C20.655,7.7625 19.106,6.1295 19.106,4.1275 C19.106,2.1255 20.655,0.4935 22.554,0.4935 C24.453,0.4935 26.002,2.1255 26.002,4.1275 C26.002,6.1295 24.453,7.7625 22.554,7.7625" id="Fill-6" fill="#BDC0C5"></path>
                <path d="M13.536,63.6805 C11.637,63.6805 10.088,62.0475 10.088,60.0455 C10.088,58.0425 11.637,56.4105 13.536,56.4105 C15.435,56.4105 16.984,58.0425 16.984,60.0455 C16.984,62.0475 15.435,63.6805 13.536,63.6805" id="Fill-8" fill="#3B1CD8"></path>
                <g id="Group-12" transform="translate(47.000000, 23.992600)" fill="#4B1DD9">
                    <path d="M4.5741,10.5619 L9.2861,10.5619 L9.2861,7.1519 L4.5741,7.1519 L4.5741,4.1509 L9.6841,4.1509 L9.6841,0.7409 L0.3891,0.7409 L0.3891,16.4669 L4.5741,16.4669 L4.5741,10.5619 Z M15.1291,16.4679 L19.4001,16.4679 L19.4001,0.7409 L15.1291,0.7409 L15.1291,16.4679 Z M40.6371,0.7409 L36.8511,0.7409 L36.8511,7.8499 C36.8511,8.8119 36.9011,10.0839 37.0011,11.6689 L36.9371,11.6689 L31.2141,0.7409 L25.6631,0.7409 L25.6631,16.4669 L29.4281,16.4669 L29.4281,9.3779 C29.4281,8.4599 29.3601,7.1289 29.2241,5.3869 L29.3211,5.3869 L35.0651,16.4669 L40.6371,16.4669 L40.6371,0.7409 Z M61.8741,0.7409 L58.0881,0.7409 L58.0881,7.8499 C58.0881,8.8119 58.1381,10.0839 58.2391,11.6689 L58.1741,11.6689 L52.4511,0.7409 L46.9001,0.7409 L46.9001,16.4669 L50.6651,16.4669 L50.6651,9.3779 C50.6651,8.4599 50.5971,7.1289 50.4611,5.3869 L50.5581,5.3869 L56.3021,16.4669 L61.8741,16.4669 L61.8741,0.7409 Z M75.5171,9.8629 L79.0351,9.8629 L79.0351,14.7039 C77.9951,14.9549 76.9301,15.0799 75.8401,15.0799 C73.8321,15.0799 72.3101,14.5309 71.2731,13.4329 C70.2371,12.3359 69.7191,10.7269 69.7191,8.6039 C69.7191,6.5819 70.2571,4.9999 71.3331,3.8599 C72.4081,2.7189 73.9041,2.1499 75.8181,2.1499 C77.1311,2.1499 78.4971,2.4509 79.9171,3.0519 L80.6271,1.4399 C79.1781,0.8229 77.6151,0.5139 75.9371,0.5139 C74.2801,0.5139 72.8351,0.8379 71.6021,1.4879 C70.3681,2.1359 69.4231,3.0769 68.7671,4.3059 C68.1111,5.5369 67.7831,6.9679 67.7831,8.6039 C67.7831,11.1569 68.4461,13.1409 69.7731,14.5569 C71.0991,15.9739 72.9531,16.6819 75.3341,16.6819 C76.4671,16.6819 77.4641,16.6149 78.3251,16.4779 C79.1851,16.3409 80.0311,16.1399 80.8631,15.8749 L80.8631,8.2279 L75.5171,8.2279 L75.5171,9.8629 Z M96.2701,14.8329 L89.3321,14.8329 L89.3321,9.0439 L95.8511,9.0439 L95.8511,7.4309 L89.3321,7.4309 L89.3321,2.3649 L96.2701,2.3649 L96.2701,0.7409 L87.5031,0.7409 L87.5031,16.4669 L96.2701,16.4669 L96.2701,14.8329 Z M114.9041,0.7409 L113.1941,0.7409 L113.1941,9.7649 C113.1791,10.2169 113.1971,10.9679 113.2481,12.0199 C113.2981,13.0699 113.3301,13.6919 113.3451,13.8849 L113.2581,13.8849 L104.6851,0.7409 L102.6201,0.7409 L102.6201,16.4669 L104.3081,16.4669 L104.3081,7.5279 C104.3081,6.2379 104.2511,4.8179 104.1361,3.2689 L104.2221,3.2689 L112.8171,16.4669 L114.9041,16.4669 L114.9041,0.7409 Z" id="Fill-10"></path>
                </g>
            </g>
        </g>
    </g>
</svg>